<svg width="40" height="29" xmlns="http://www.w3.org/2000/svg" xmlns:xlink="http://www.w3.org/1999/xlink" xml:space="preserve" overflow="hidden"><defs><clipPath id="clip0"><rect x="691" y="550" width="40" height="29"/></clipPath></defs><g clip-path="url(#clip0)" transform="translate(-691 -550)"><path d="M18.6592 11.0064C18.5765 13.5694 19.6462 17.3105 20.2559 19.7134 20.4161 19.1036 20.2973 17.2434 20.4213 16.5509 20.5505 15.7914 20.6073 15.4141 20.7985 14.6959 20.597 14.2877 20.3799 13.957 20.0182 13.5849L20.4419 13.1405C19.641 12.4946 19.1294 11.8797 18.6592 11.0064L18.6592 11.0064ZM23.7335 10.159C23.2271 11.5593 22.6226 12.1174 22.018 13.0733L22.5037 13.4351C22.2763 13.8794 21.7803 14.1895 21.9146 14.5925 22.2763 15.688 22.4624 16.3184 22.6897 17.4862L22.8448 20.3283C23.5785 17.5896 24.2451 14.2153 23.7335 10.159L23.7335 10.159ZM20.8398 0.00516733C23.9764 0.0103347 23.8989 1.24016 24.4156 2.33563 25.1339 3.87033 24.9737 4.28371 24.6895 5.25517 25.1907 5.36369 24.9685 6.41782 24.2813 7.02757L23.7697 8.02486C23.5888 8.57776 23.0359 9.38387 23.3563 9.73524 23.8937 10.3347 24.6171 10.7429 25.2321 10.9961 25.8211 11.2751 26.0692 11.3113 26.8856 11.5335 28.0534 11.7557 28.7355 11.9727 29.8413 12.3757 31.0918 12.8408 31.4122 13.3059 31.531 14.2515 31.6499 15.2798 32.0943 14.8147 31.9703 16.0445 31.8566 16.768 32.8694 16.2977 32.8332 18.8142 32.7919 20.0337 33.2001 20.8088 33.3034 21.7699 33.4274 22.4004 33.9958 22.7311 34.3162 23.2065 34.6573 23.4855 36.4968 22.5502 36.533 22.204 36.5847 21.5012 36.8637 20.783 37.2564 20.1422 37.6595 19.1294 38.1039 17.5947 38.6258 17.7549 38.941 17.8583 38.7343 18.8504 38.7446 19.4395 38.7446 19.9097 39.4112 19.4291 39.6334 19.672 39.9848 20.0337 39.6902 20.6021 39.4732 21.0052 39.189 21.3152 39.406 21.4031 39.4267 21.7338 39.5507 22.1317 38.786 21.9663 38.5844 23.7542 38.7084 24.8652 39.0702 24.3898 38.1969 26.4929 37.6905 27.5884 37.3081 27.392 36.0163 27.6607 34.7916 28.0689 34.3111 29.1799 32.4973 28.9474 31.6861 28.6942 31.4742 28.41 30.6939 28.0793 30.2185 27.7899 30.1359 26.0898 29.7431 26.2759 29.2987 26.5032 29.5003 28.3273 29.5003 28.8389L12.9338 28.8027 13.1198 25.7023C12.1381 27.2525 11.2803 28.0999 10.1073 27.9707 8.28839 27.7951 7.24459 27.3093 6.54184 27.0303 5.49287 26.9063 5.40502 26.064 4.92446 26.1312 4.22171 26.033 3.56546 25.3664 3.4001 24.8393 3.39493 24.4931 3.55512 24.5345 3.77215 23.5217 3.01772 23.1083 2.42348 22.6949 1.87057 22.0387 1.67421 21.832 1.22982 21.5839 0.98696 21.1344 0.800936 20.845 1.11614 20.628 0.547737 20.1681 0.320374 19.9666 0.237697 19.2741 0.23253 18.8711 0.294538 18.6179-0.206693 18.1787 0.0981792 17.9668 0.397884 17.6878 1.60704 19.579 2.67668 19.0726 3.3536 18.8607 1.96875 16.8145 2.8472 16.5044 3.63263 16.2926 3.63263 18.5249 4.38189 19.6617 4.77461 20.2146 4.90379 20.721 5.01747 21.3359 6.13362 21.7803 6.58834 22.5089 7.66831 22.5812 8.67078 22.5709 9.28569 23.2685 9.6629 23.1083 10.3708 22.8551 10.1331 22.0748 10.2571 21.6408 10.7584 20.783 10.9702 19.2793 11.5128 18.282 11.6833 17.9513 11.1666 17.9823 11.3578 17.3054 12.0967 15.2798 12.4533 13.8278 12.9752 13.5952L17.2072 11.8435 18.6592 10.159C19.207 9.20301 18.313 8.92397 18.1683 8.16954L17.5121 7.19292C17.3312 6.82604 17.3674 6.04061 17.2072 5.29134 16.0187 1.97392 18.2097-0.144685 20.8398 0.00516733L20.8398 0.00516733Z" stroke="#F3525A" stroke-width="0.0516267" fill="#F3525A" fill-rule="evenodd" transform="matrix(1.00493 0 0 1 691 550.008)"/></g></svg>