<svg width="24" height="24" xmlns="http://www.w3.org/2000/svg" xmlns:xlink="http://www.w3.org/1999/xlink" xml:space="preserve" overflow="hidden"><defs><clipPath id="clip0"><rect x="72" y="174" width="24" height="24"/></clipPath></defs><g clip-path="url(#clip0)" transform="translate(-72 -174)"><path d="M93.171 189.398 87.259 179.544C86.483 178.251 85.296 177.511 84 177.511 82.704 177.511 81.517 178.251 80.741 179.542L74.829 189.398C74.043 190.707 73.957 192.103 74.594 193.228 75.23 194.354 76.472 195 78 195L90 195C91.528 195 92.77 194.354 93.406 193.229 94.043 192.104 93.957 190.708 93.171 189.398ZM84 182.449C84.854 182.451 85.549 183.147 85.551 183.999 85.551 184.852 84.856 185.548 84.001 185.55 83.147 185.548 82.451 184.852 82.449 184 82.449 183.145 83.145 182.449 84 182.449ZM85.69 190.91C85.658 190.947 84.895 191.828 83.622 191.828 83.571 191.828 83.519 191.827 83.468 191.824 82.96 191.794 82.54 191.569 82.283 191.19 81.968 190.725 81.925 190.077 82.162 189.365L82.568 188.144C82.793 187.461 82.578 187.352 82.462 187.294 82.431 187.278 82.382 187.269 82.322 187.269 82.071 187.269 81.725 187.417 81.614 187.475 81.51 187.529 81.379 187.501 81.303 187.408 81.23 187.313 81.232 187.181 81.31 187.09 81.343 187.051 82.177 186.095 83.533 186.176 84.038 186.205 84.458 186.429 84.715 186.807 85.031 187.272 85.075 187.921 84.839 188.635L84.433 189.856C84.206 190.538 84.423 190.648 84.539 190.706 84.559 190.716 84.601 190.729 84.676 190.729 84.93 190.729 85.276 190.581 85.388 190.524 85.494 190.468 85.623 190.498 85.698 190.592 85.77 190.687 85.768 190.819 85.69 190.91Z" fill="#07A398"/></g></svg>