<svg width="24" height="24" xmlns="http://www.w3.org/2000/svg" xmlns:xlink="http://www.w3.org/1999/xlink" xml:space="preserve" overflow="hidden"><defs><clipPath id="clip0"><rect x="72" y="438" width="24" height="24"/></clipPath></defs><g clip-path="url(#clip0)" transform="translate(-72 -438)"><path d="M93.171 453.398 87.259 443.544C86.483 442.251 85.296 441.511 84 441.511 82.704 441.511 81.517 442.251 80.741 443.542L74.829 453.398C74.043 454.707 73.957 456.103 74.594 457.228 75.23 458.354 76.472 459 78 459L90 459C91.528 459 92.77 458.354 93.406 457.229 94.043 456.104 93.957 454.708 93.171 453.398ZM84 446.449C84.854 446.451 85.549 447.147 85.551 447.999 85.551 448.852 84.856 449.548 84.001 449.55 83.147 449.548 82.451 448.852 82.449 448 82.449 447.145 83.145 446.449 84 446.449ZM85.69 454.91C85.658 454.947 84.895 455.828 83.622 455.828 83.571 455.828 83.519 455.827 83.468 455.824 82.96 455.794 82.54 455.569 82.283 455.19 81.968 454.725 81.925 454.077 82.162 453.365L82.568 452.144C82.793 451.461 82.578 451.352 82.462 451.294 82.431 451.278 82.382 451.269 82.322 451.269 82.071 451.269 81.725 451.417 81.614 451.475 81.51 451.529 81.379 451.501 81.303 451.408 81.23 451.313 81.232 451.181 81.31 451.09 81.343 451.051 82.177 450.095 83.533 450.176 84.038 450.205 84.458 450.429 84.715 450.807 85.031 451.272 85.075 451.921 84.839 452.635L84.433 453.856C84.206 454.538 84.423 454.648 84.539 454.706 84.559 454.716 84.601 454.729 84.676 454.729 84.93 454.729 85.276 454.581 85.388 454.524 85.494 454.468 85.623 454.498 85.698 454.592 85.77 454.687 85.768 454.819 85.69 454.91Z" fill="#90C221"/></g></svg>