<svg width="24" height="24" xmlns="http://www.w3.org/2000/svg" xmlns:xlink="http://www.w3.org/1999/xlink" xml:space="preserve" overflow="hidden"><defs><clipPath id="clip0"><rect x="72" y="587" width="24" height="24"/></clipPath></defs><g clip-path="url(#clip0)" transform="translate(-72 -587)"><path d="M93.171 602.398 87.259 592.544C86.483 591.251 85.296 590.511 84 590.511 82.704 590.511 81.517 591.251 80.741 592.542L74.829 602.398C74.043 603.707 73.957 605.103 74.594 606.228 75.23 607.354 76.472 608 78 608L90 608C91.528 608 92.77 607.354 93.406 606.229 94.043 605.104 93.957 603.708 93.171 602.398ZM84 595.449C84.854 595.451 85.549 596.147 85.551 596.999 85.551 597.852 84.856 598.548 84.001 598.55 83.147 598.548 82.451 597.852 82.449 597 82.449 596.145 83.145 595.449 84 595.449ZM85.69 603.91C85.658 603.947 84.895 604.828 83.622 604.828 83.571 604.828 83.519 604.827 83.468 604.824 82.96 604.794 82.54 604.569 82.283 604.19 81.968 603.725 81.925 603.077 82.162 602.365L82.568 601.144C82.793 600.461 82.578 600.352 82.462 600.294 82.431 600.278 82.382 600.269 82.322 600.269 82.071 600.269 81.725 600.417 81.614 600.475 81.51 600.529 81.379 600.501 81.303 600.408 81.23 600.313 81.232 600.181 81.31 600.09 81.343 600.051 82.177 599.095 83.533 599.176 84.038 599.205 84.458 599.429 84.715 599.807 85.031 600.272 85.075 600.921 84.839 601.635L84.433 602.856C84.206 603.538 84.423 603.648 84.539 603.706 84.559 603.716 84.601 603.729 84.676 603.729 84.93 603.729 85.276 603.581 85.388 603.524 85.494 603.468 85.623 603.498 85.698 603.592 85.77 603.687 85.768 603.819 85.69 603.91Z" fill="#0680C3"/></g></svg>