<svg width="32" height="32" xmlns="http://www.w3.org/2000/svg" xmlns:xlink="http://www.w3.org/1999/xlink" xml:space="preserve" overflow="hidden"><defs><clipPath id="clip0"><rect x="543" y="178" width="32" height="32"/></clipPath></defs><g clip-path="url(#clip0)" transform="translate(-543 -178)"><path d="M551.5 187.75 553.5 188.75 555.5 188.75" stroke="#F3525A" fill="none" fill-rule="evenodd"/><path d="M565 188.25 564.348 188.58C564.124 188.69 563.867 188.71 563.626 188.65L560.769 187.83C560.591 187.78 560.406 187.75 560.22 187.75L557.07 187.75C556.402 187.75 555.777 188.09 555.406 188.64L553 192.25 555.465 192.25C555.799 192.25 556.111 192.09 556.297 191.81L556.703 191.2C556.889 190.92 557.201 190.75 557.535 190.75L558.197 190.75C558.395 190.75 558.588 190.81 558.752 190.92L566.401 196.02C566.975 196.4 567.13 197.18 566.747 197.75 566.734 197.77 566.721 197.79 566.707 197.81L566.676 197.85C566.292 198.36 565.583 198.5 565.033 198.17L561 195.75" stroke="#F3525A" stroke-width="1.00157" stroke-linecap="round" stroke-linejoin="round" fill="none" fill-rule="evenodd"/><path d="M566.5 195.75 568.5 193.25" stroke="#F3525A" fill="none" fill-rule="evenodd"/><path d="M550 195.75 548 193.75" stroke="#F3525A" fill="none" fill-rule="evenodd"/><path d="M552.996 185.76 547.003 195.25 543.506 193.25" stroke="#F3525A" stroke-linecap="round" stroke-linejoin="round" fill="none" fill-rule="evenodd"/><path d="M554.006 195.41 554.059 195.44C554.514 195.74 554.64 196.35 554.34 196.8L552.358 199.81C552.058 200.27 551.45 200.39 550.994 200.1L550.941 200.06C550.486 199.76 550.36 199.16 550.66 198.7L552.643 195.69C552.942 195.24 553.55 195.11 554.006 195.41Z" stroke="#F3525A" stroke-linecap="round" stroke-linejoin="round" fill="none"/><path d="M555.152 197.36C555.616 197.67 555.745 198.28 555.441 198.75L554.072 200.84C553.769 201.3 553.152 201.43 552.688 201.13 552.224 200.83 552.096 200.21 552.399 199.74L553.768 197.65C554.071 197.19 554.689 197.06 555.152 197.36Z" stroke="#F3525A" stroke-linecap="round" stroke-linejoin="round" fill="none"/><path d="M556.486 198.91C556.951 199.21 557.083 199.83 556.783 200.29L555.892 201.67C555.592 202.14 554.976 202.27 554.511 201.97 554.046 201.67 553.913 201.05 554.213 200.59L555.104 199.21C555.405 198.74 556.021 198.61 556.486 198.91Z" stroke="#F3525A" stroke-linecap="round" stroke-linejoin="round" fill="none"/><path d="M551.646 195.4C552.111 195.7 552.244 196.31 551.944 196.78L551.053 198.16C550.753 198.63 550.137 198.76 549.672 198.46 549.206 198.16 549.074 197.54 549.374 197.07L550.265 195.69C550.565 195.23 551.181 195.09 551.646 195.4Z" stroke="#F3525A" stroke-linecap="round" stroke-linejoin="round" fill="none"/><path d="M564.004 185.76 569.997 195.25 573.494 193.25" stroke="#F3525A" stroke-linecap="round" stroke-linejoin="round" fill="none" fill-rule="evenodd"/><path d="M565.251 198.53 564.822 199.12C564.359 199.76 563.482 199.93 562.813 199.51L560 197.75" stroke="#F3525A" stroke-width="1.00157" stroke-linecap="round" stroke-linejoin="round" fill="none" fill-rule="evenodd"/><path d="M563.765 200.01 563.322 200.62C562.854 201.26 561.976 201.45 561.284 201.06L559 199.75" stroke="#F3525A" stroke-width="1.00157" stroke-linecap="round" stroke-linejoin="round" fill="none" fill-rule="evenodd"/><path d="M561.407 201.28 560.969 201.95C560.652 202.43 560.04 202.63 559.499 202.42L556.5 201.28" stroke="#F3525A" stroke-width="1.00157" stroke-linejoin="round" fill="none" fill-rule="evenodd"/><path d="M546.5 192.25C546.5 192.53 546.276 192.75 546 192.75 545.724 192.75 545.5 192.53 545.5 192.25 545.5 191.98 545.724 191.75 546 191.75 546.276 191.75 546.5 191.98 546.5 192.25Z" stroke="#F3525A" stroke-linecap="round" stroke-linejoin="round"/><path d="M571.5 192.25C571.5 192.53 571.276 192.75 571 192.75 570.724 192.75 570.5 192.53 570.5 192.25 570.5 191.98 570.724 191.75 571 191.75 571.276 191.75 571.5 191.98 571.5 192.25Z" stroke="#F3525A" stroke-linecap="round" stroke-linejoin="round"/></g></svg>