<svg width="512" height="509" xmlns="http://www.w3.org/2000/svg" xmlns:xlink="http://www.w3.org/1999/xlink" xml:space="preserve" overflow="hidden"><defs><clipPath id="clip0"><rect x="264" y="105" width="512" height="509"/></clipPath></defs><g clip-path="url(#clip0)" transform="translate(-264 -105)"><path d="M386.58 187.63 653.42 187.63C663.52 187.63 672.7 191.77 679.34 198.41L679.9 199.03C686.23 205.63 690.14 214.58 690.14 224.34L690.14 494.66C690.14 504.7 685.99 513.87 679.34 520.53L679.3 520.57C672.64 527.22 663.47 531.37 653.42 531.37L386.58 531.37C376.53 531.37 367.35 527.23 360.69 520.58 354.01 513.93 349.86 504.75 349.86 494.66L349.86 224.34C349.86 214.24 353.99 205.05 360.64 198.41L361.25 197.85C367.85 191.53 376.79 187.63 386.58 187.63ZM431.04 355.6C438.87 355.6 446 358.79 451.17 363.95L451.21 363.99C456.38 369.18 459.56 376.3 459.56 384.12 459.56 391.98 456.37 399.12 451.21 404.28L450.67 404.78C447.85 407.45 444.49 409.56 440.78 410.91L440.78 452.84 538.45 452.84C543.27 452.84 547.18 456.74 547.18 461.56L547.18 512.03 653.42 512.03C658.17 512.03 662.52 510.07 665.68 506.92 668.84 503.75 670.8 499.4 670.8 494.66L670.8 224.34C670.8 219.78 669 215.59 666.08 212.47L665.67 212.08C662.52 208.93 658.18 206.97 653.42 206.97L628.64 206.97 628.64 345.7C628.64 350.52 624.74 354.43 619.91 354.43L581.67 354.43C580.3 359.02 577.79 363.15 574.48 366.46 569.34 371.64 562.2 374.84 554.33 374.84 546.51 374.84 539.38 371.64 534.21 366.48L534.17 366.45C529 361.26 525.82 354.14 525.82 346.32 525.82 338.45 529.01 331.31 534.17 326.15 539.33 321 546.47 317.8 554.33 317.8 562.2 317.8 569.34 321 574.5 326.16L574.99 326.7C577.76 329.62 579.93 333.11 581.27 336.97L611.19 336.97 611.19 206.97 386.58 206.97C382 206.97 377.81 208.76 374.69 211.67L374.31 212.08C371.16 215.23 369.2 219.58 369.2 224.34L369.2 259.41 520.62 259.41 520.62 253.16C520.62 249.68 522.04 246.52 524.32 244.24 526.6 241.96 529.77 240.54 533.24 240.54L562.95 240.54C566.43 240.54 569.59 241.96 571.87 244.24 574.14 246.52 575.57 249.68 575.57 253.16L575.57 283.11C575.57 286.58 574.14 289.75 571.87 292.02 569.59 294.3 566.43 295.72 562.95 295.72L533.24 295.72C529.77 295.72 526.6 294.3 524.32 292.02 522.04 289.75 520.62 286.58 520.62 283.11L520.62 276.86 369.2 276.86 369.2 314.76 490.56 314.76C495.38 314.76 499.29 318.67 499.29 323.49L499.29 409.29 576.56 409.29 576.56 400.66C576.56 397.05 578.04 393.76 580.4 391.4 582.77 389.03 586.06 387.55 589.67 387.55L622.65 387.55C626.27 387.55 629.55 389.03 631.92 391.4 634.28 393.76 635.76 397.05 635.76 400.66L635.76 433.9C635.76 437.52 634.28 440.8 631.92 443.17 629.55 445.54 626.27 447.02 622.65 447.02L589.67 447.02C586.06 447.02 582.77 445.54 580.4 443.17 578.04 440.8 576.56 437.52 576.56 433.9L576.56 426.75 490.56 426.75C485.74 426.75 481.83 422.84 481.83 418.02L481.83 332.21 369.2 332.21 369.2 494.66C369.2 499.41 371.17 503.76 374.32 506.91 377.47 510.07 381.82 512.03 386.58 512.03L529.72 512.03 529.72 470.29 432.06 470.29C427.24 470.29 423.33 466.38 423.33 461.56L423.33 411.58C418.56 410.24 414.29 407.69 410.88 404.28 405.72 399.12 402.53 391.98 402.53 384.12 402.53 376.28 405.73 369.14 410.9 363.97 416.04 358.79 423.17 355.6 431.04 355.6ZM439.75 375.37C437.55 373.17 434.47 371.8 431.04 371.8 427.64 371.8 424.56 373.18 422.33 375.41 420.09 377.61 418.73 380.69 418.73 384.12 418.73 387.52 420.11 390.6 422.33 392.83 424.56 395.05 427.64 396.43 431.04 396.43 434.3 396.43 437.24 395.2 439.42 393.18L439.75 392.83C441.98 390.6 443.36 387.52 443.36 384.12 443.36 380.69 441.99 377.61 439.79 375.41L439.75 375.37ZM619.56 403.75 592.76 403.75 592.76 430.81 619.56 430.81 619.56 403.75ZM563.04 337.61C560.82 335.39 557.74 334.01 554.33 334.01 550.93 334.01 547.85 335.38 545.63 337.61 543.4 339.83 542.02 342.92 542.02 346.32 542.02 349.74 543.39 352.82 545.59 355.03L545.63 355.06C547.83 357.27 550.91 358.63 554.33 358.63 557.74 358.63 560.82 357.25 563.04 355.03 564.97 353.13 566.25 350.59 566.57 347.74 566.42 347.08 566.33 346.4 566.33 345.7 566.33 345.18 566.38 344.67 566.47 344.17 566.05 341.78 564.96 339.63 563.4 337.95L563.04 337.61ZM559.36 256.74 536.82 256.74 536.82 279.52 559.36 279.52 559.36 256.74ZM264 449.38 264 479.9C264 483.04 266.57 485.61 269.71 485.61L314.55 485.61C317.69 485.61 320.26 483.04 320.26 479.9L320.26 449.38C320.26 446.24 317.69 443.67 314.55 443.67L269.71 443.67C266.57 443.67 264 446.24 264 449.38ZM264 379.29 264 409.81C264 412.95 266.57 415.52 269.71 415.52L314.55 415.52C317.69 415.52 320.26 412.95 320.26 409.81L320.26 379.29C320.26 376.15 317.69 373.58 314.55 373.58L269.71 373.58C266.57 373.58 264 376.15 264 379.29ZM264 309.2 264 339.72C264 342.86 266.57 345.43 269.71 345.43L314.55 345.43C317.69 345.43 320.26 342.86 320.26 339.72L320.26 309.2C320.26 306.06 317.69 303.49 314.55 303.49L269.71 303.49C266.57 303.49 264 306.06 264 309.2ZM264 239.11 264 269.63C264 272.77 266.57 275.34 269.71 275.34L314.55 275.34C317.69 275.34 320.26 272.77 320.26 269.63L320.26 239.11C320.26 235.97 317.69 233.4 314.55 233.4L269.71 233.4C266.57 233.4 264 235.97 264 239.11ZM776 449.38 776 479.9C776 483.04 773.43 485.61 770.29 485.61L725.44 485.61C722.31 485.61 719.74 483.04 719.74 479.9L719.74 449.38C719.74 446.24 722.31 443.67 725.44 443.67L770.29 443.67C773.43 443.67 776 446.24 776 449.38ZM776 379.29 776 409.81C776 412.95 773.43 415.52 770.29 415.52L725.44 415.52C722.31 415.52 719.74 412.95 719.74 409.81L719.74 379.29C719.74 376.15 722.31 373.58 725.44 373.58L770.29 373.58C773.43 373.58 776 376.15 776 379.29ZM776 309.2 776 339.72C776 342.86 773.43 345.43 770.29 345.43L725.44 345.43C722.31 345.43 719.74 342.86 719.74 339.72L719.74 309.2C719.74 306.06 722.31 303.49 725.44 303.49L770.29 303.49C773.43 303.49 776 306.06 776 309.2ZM776 239.11 776 269.63C776 272.77 773.43 275.34 770.29 275.34L725.44 275.34C722.31 275.34 719.74 272.77 719.74 269.63L719.74 239.11C719.74 235.97 722.31 233.4 725.44 233.4L770.29 233.4C773.43 233.4 776 235.97 776 239.11ZM609.87 613.92 640.39 613.92C643.53 613.92 646.1 611.35 646.1 608.21L646.1 563.37C646.1 560.23 643.53 557.66 640.39 557.66L609.87 557.66C606.73 557.66 604.16 560.23 604.16 563.37L604.16 608.21C604.16 611.35 606.73 613.92 609.87 613.92ZM539.79 613.92 570.31 613.92C573.45 613.92 576.01 611.35 576.01 608.21L576.01 563.37C576.01 560.23 573.45 557.66 570.31 557.66L539.79 557.66C536.65 557.66 534.08 560.23 534.08 563.37L534.08 608.21C534.08 611.35 536.65 613.92 539.79 613.92ZM469.7 613.92 500.22 613.92C503.35 613.92 505.92 611.35 505.92 608.21L505.92 563.37C505.92 560.23 503.35 557.66 500.22 557.66L469.7 557.66C466.56 557.66 463.99 560.23 463.99 563.37L463.99 608.21C463.99 611.35 466.56 613.92 469.7 613.92ZM399.61 613.92 430.13 613.92C433.27 613.92 435.83 611.35 435.83 608.21L435.83 563.37C435.83 560.23 433.27 557.66 430.13 557.66L399.61 557.66C396.47 557.66 393.9 560.23 393.9 563.37L393.9 608.21C393.9 611.35 396.47 613.92 399.61 613.92ZM609.87 105.08 640.39 105.08C643.53 105.08 646.1 107.65 646.1 110.79L646.1 155.64C646.1 158.77 643.53 161.34 640.39 161.34L609.87 161.34C606.73 161.34 604.16 158.77 604.16 155.64L604.16 110.79C604.16 107.65 606.73 105.08 609.87 105.08ZM539.79 105.08 570.31 105.08C573.45 105.08 576.01 107.65 576.01 110.79L576.01 155.64C576.01 158.77 573.45 161.34 570.31 161.34L539.79 161.34C536.65 161.34 534.08 158.77 534.08 155.64L534.08 110.79C534.08 107.65 536.65 105.08 539.79 105.08ZM469.7 105.08 500.22 105.08C503.35 105.08 505.92 107.65 505.92 110.79L505.92 155.64C505.92 158.77 503.35 161.34 500.22 161.34L469.7 161.34C466.56 161.34 463.99 158.77 463.99 155.64L463.99 110.79C463.99 107.65 466.56 105.08 469.7 105.08ZM399.61 105.08 430.13 105.08C433.27 105.08 435.83 107.65 435.83 110.79L435.83 155.64C435.83 158.77 433.27 161.34 430.13 161.34L399.61 161.34C396.47 161.34 393.9 158.77 393.9 155.64L393.9 110.79C393.9 107.65 396.47 105.08 399.61 105.08Z" fill="#F3525A"/></g></svg>