<svg width="23" height="22" xmlns="http://www.w3.org/2000/svg" xmlns:xlink="http://www.w3.org/1999/xlink" xml:space="preserve" overflow="hidden"><defs><clipPath id="clip0"><rect x="57" y="508" width="23" height="22"/></clipPath></defs><g clip-path="url(#clip0)" transform="translate(-57 -508)"><path d="M19.9375 10.3125C20.35 10.3125 20.625 10.0375 20.625 9.625 20.625 9.2125 20.35 8.9375 19.9375 8.9375L17.875 8.9375 17.875 7.5625 19.9375 7.5625C20.35 7.5625 20.625 7.2875 20.625 6.875 20.625 6.4625 20.35 6.1875 19.9375 6.1875L17.875 6.1875C17.875 5.01875 16.9813 4.125 15.8125 4.125L15.8125 2.0625C15.8125 1.65 15.5375 1.375 15.125 1.375 14.7125 1.375 14.4375 1.65 14.4375 2.0625L14.4375 4.125 13.0625 4.125 13.0625 2.0625C13.0625 1.65 12.7875 1.375 12.375 1.375 11.9625 1.375 11.6875 1.65 11.6875 2.0625L11.6875 4.125 10.3125 4.125 10.3125 2.0625C10.3125 1.65 10.0375 1.375 9.625 1.375 9.2125 1.375 8.9375 1.65 8.9375 2.0625L8.9375 4.125 7.5625 4.125 7.5625 2.0625C7.5625 1.65 7.2875 1.375 6.875 1.375 6.4625 1.375 6.1875 1.65 6.1875 2.0625L6.1875 4.125C5.01875 4.125 4.125 5.01875 4.125 6.1875L2.0625 6.1875C1.65 6.1875 1.375 6.4625 1.375 6.875 1.375 7.2875 1.65 7.5625 2.0625 7.5625L4.125 7.5625 4.125 8.9375 2.0625 8.9375C1.65 8.9375 1.375 9.2125 1.375 9.625 1.375 10.0375 1.65 10.3125 2.0625 10.3125L4.125 10.3125 4.125 11.6875 2.0625 11.6875C1.65 11.6875 1.375 11.9625 1.375 12.375 1.375 12.7875 1.65 13.0625 2.0625 13.0625L4.125 13.0625 4.125 14.4375 2.0625 14.4375C1.65 14.4375 1.375 14.7125 1.375 15.125 1.375 15.5375 1.65 15.8125 2.0625 15.8125L4.125 15.8125C4.125 16.9813 5.01875 17.875 6.1875 17.875L6.1875 19.9375C6.1875 20.35 6.4625 20.625 6.875 20.625 7.2875 20.625 7.5625 20.35 7.5625 19.9375L7.5625 17.875 8.9375 17.875 8.9375 19.9375C8.9375 20.35 9.2125 20.625 9.625 20.625 10.0375 20.625 10.3125 20.35 10.3125 19.9375L10.3125 17.875 11.6875 17.875 11.6875 19.9375C11.6875 20.35 11.9625 20.625 12.375 20.625 12.7875 20.625 13.0625 20.35 13.0625 19.9375L13.0625 17.875 14.4375 17.875 14.4375 19.9375C14.4375 20.35 14.7125 20.625 15.125 20.625 15.5375 20.625 15.8125 20.35 15.8125 19.9375L15.8125 17.875C16.9813 17.875 17.875 16.9813 17.875 15.8125L19.9375 15.8125C20.35 15.8125 20.625 15.5375 20.625 15.125 20.625 14.7125 20.35 14.4375 19.9375 14.4375L17.875 14.4375 17.875 13.0625 19.9375 13.0625C20.35 13.0625 20.625 12.7875 20.625 12.375 20.625 11.9625 20.35 11.6875 19.9375 11.6875L17.875 11.6875 17.875 10.3125 19.9375 10.3125ZM15.125 13.0625C15.125 14.2313 14.2313 15.125 13.0625 15.125L8.9375 15.125C7.76875 15.125 6.875 14.2313 6.875 13.0625L6.875 8.9375C6.875 7.76875 7.76875 6.875 8.9375 6.875L13.0625 6.875C14.2313 6.875 15.125 7.76875 15.125 8.9375L15.125 13.0625Z" fill="#F3525A" transform="matrix(1.04545 0 0 1 57 508)"/></g></svg>