<svg width="34" height="34" xmlns="http://www.w3.org/2000/svg" xmlns:xlink="http://www.w3.org/1999/xlink" xml:space="preserve" overflow="hidden"><defs><clipPath id="clip0"><rect x="204" y="548" width="34" height="34"/></clipPath></defs><g clip-path="url(#clip0)" transform="translate(-204 -548)"><path d="M221 553.312C214.545 553.312 209.312 558.545 209.312 565 209.312 571.455 214.545 576.688 221 576.688 227.455 576.688 232.688 571.455 232.688 565 232.688 558.545 227.455 553.312 221 553.312ZM219.406 567.125 218.344 568.719 218.344 572.969 215.156 572.969 215.156 568.719 214.094 567.125 214.094 563.938C214.094 563.35 214.569 562.875 215.156 562.875L216.75 562.875C215.87 562.875 215.156 562.162 215.156 561.281 215.156 560.401 215.87 559.688 216.75 559.688 217.63 559.688 218.344 560.401 218.344 561.281 218.344 562.162 217.63 562.875 216.75 562.875L218.344 562.875C218.931 562.875 219.406 563.35 219.406 563.938L219.406 567.125ZM217.281 558.625 217.281 556.5 222.062 556.5 222.062 555.438 225.25 557.562 222.062 559.688 222.062 558.625 217.281 558.625ZM227.906 567.125 226.844 568.719 226.844 572.969 223.656 572.969 223.656 568.719 222.594 567.125 222.594 563.938C222.594 563.35 223.069 562.875 223.656 562.875L225.25 562.875C224.37 562.875 223.656 562.162 223.656 561.281 223.656 560.401 224.37 559.688 225.25 559.688 226.13 559.688 226.844 560.401 226.844 561.281 226.844 562.162 226.13 562.875 225.25 562.875L226.844 562.875C227.431 562.875 227.906 563.35 227.906 563.938L227.906 567.125Z" fill="#F3525A"/><path d="M205.062 549.062 209.312 549.062 209.312 553.312 205.062 553.312Z" fill="#F3525A"/><path d="M232.688 549.062 236.938 549.062 236.938 553.312 232.688 553.312Z" fill="#F3525A"/><path d="M205.062 576.688 209.312 576.688 209.312 580.938 205.062 580.938Z" fill="#F3525A"/><path d="M232.688 576.688 236.938 576.688 236.938 580.938 232.688 580.938Z" fill="#F3525A"/><path d="M230.562 578.281 215.156 578.281 215.156 577.219C215.156 577.028 215.054 576.851 214.887 576.757 214.721 576.662 214.516 576.665 214.351 576.763L211.695 578.357C211.536 578.453 211.438 578.626 211.438 578.812 211.438 578.999 211.536 579.172 211.695 579.268L214.351 580.862C214.436 580.913 214.53 580.938 214.625 580.938 214.715 580.938 214.806 580.915 214.887 580.868 215.054 580.774 215.156 580.597 215.156 580.406L215.156 579.344 230.562 579.344 230.562 578.281Z" fill="#F3525A"/><path d="M226.844 552.781C226.844 552.972 226.946 553.149 227.113 553.243 227.194 553.29 227.285 553.312 227.375 553.312 227.47 553.312 227.564 553.288 227.649 553.237L230.305 551.643C230.464 551.547 230.562 551.374 230.562 551.188 230.562 551.001 230.464 550.828 230.305 550.732L227.649 549.138C227.484 549.039 227.28 549.038 227.113 549.132 226.946 549.226 226.844 549.403 226.844 549.594L226.844 550.656 211.438 550.656 211.438 551.719 226.844 551.719 226.844 552.781Z" fill="#F3525A"/><path d="M236.868 571.113C236.774 570.947 236.598 570.844 236.406 570.844L235.344 570.844 235.344 555.438 234.281 555.438 234.281 570.844 233.219 570.844C233.027 570.844 232.851 570.947 232.757 571.113 232.662 571.279 232.665 571.484 232.763 571.648L234.357 574.304C234.453 574.465 234.626 574.562 234.812 574.562 234.999 574.562 235.172 574.465 235.268 574.305L236.862 571.649C236.96 571.484 236.963 571.28 236.868 571.113Z" fill="#F3525A"/><path d="M205.594 559.156 206.656 559.156 206.656 574.562 207.719 574.562 207.719 559.156 208.781 559.156C208.973 559.156 209.149 559.053 209.243 558.887 209.338 558.721 209.335 558.516 209.237 558.352L207.643 555.696C207.451 555.375 206.923 555.375 206.732 555.696L205.138 558.352C205.039 558.516 205.037 558.721 205.131 558.887 205.225 559.053 205.402 559.156 205.594 559.156Z" fill="#F3525A"/></g></svg>