<svg width="65" height="65" xmlns="http://www.w3.org/2000/svg" xmlns:xlink="http://www.w3.org/1999/xlink" xml:space="preserve" overflow="hidden"><defs><clipPath id="clip0"><rect x="1889" y="891" width="65" height="65"/></clipPath></defs><g clip-path="url(#clip0)" transform="translate(-1889 -891)"><path d="M1916.32 891C1920.53 891 1923.94 894.406 1923.94 898.607 1923.94 901.683 1922.11 904.333 1919.48 905.516L1921.39 914.527C1921.47 914.502 1921.56 914.501 1921.65 914.501 1925.85 914.501 1929.27 917.906 1929.27 922.108L1929.23 922.551 1939.9 925.449C1941.22 923.252 1943.63 921.794 1946.38 921.794 1950.59 921.794 1954 925.2 1954 929.402 1954 933.603 1950.59 937.009 1946.38 937.009 1942.17 937.009 1938.76 933.603 1938.76 929.402L1938.89 928.177 1928.46 925.343C1927.75 927.009 1926.4 928.319 1924.74 929.049L1927.46 940.883C1931.21 941.327 1934.1 944.523 1934.1 948.393 1934.1 952.594 1930.69 956 1926.48 956 1922.28 956 1918.86 952.594 1918.86 948.393 1918.86 944.871 1921.26 941.908 1924.52 941.071L1921.91 929.689C1921.82 929.714 1921.73 929.715 1921.65 929.715 1918.72 929.715 1916.17 928.063 1914.93 925.625L1903.64 930.254C1904.02 931.161 1904.24 932.158 1904.24 933.204 1904.24 937.406 1900.82 940.812 1896.62 940.812 1892.41 940.812 1889 937.406 1889 933.204 1889 929.003 1892.41 925.597 1896.62 925.597 1898.71 925.597 1900.6 926.439 1901.98 927.803L1914.1 922.832C1914.04 922.596 1914.03 922.353 1914.03 922.108 1914.03 919.008 1915.89 916.341 1918.56 915.167L1916.65 906.182C1916.54 906.212 1916.43 906.215 1916.32 906.215 1912.12 906.215 1908.71 902.809 1908.71 898.607 1908.71 894.406 1912.12 891 1916.32 891Z" fill="#F3525A" fill-rule="evenodd"/></g></svg>