<svg width="19" height="19" xmlns="http://www.w3.org/2000/svg" xmlns:xlink="http://www.w3.org/1999/xlink" xml:space="preserve" overflow="hidden"><defs><clipPath id="clip0"><rect x="550" y="333" width="19" height="19"/></clipPath></defs><g clip-path="url(#clip0)" transform="translate(-550 -333)"><path d="M550.297 351.703 564.547 351.703 564.547 333.297 550.297 333.297 550.297 351.703ZM550.891 333.891 563.953 333.891 563.953 351.109 550.891 351.109 550.891 333.891Z" stroke="#F3525A" stroke-width="0.296903" fill="#F3525A"/><path d="M557.125 338.047 557.125 338.641 557.719 338.641 557.719 338.047C558.21 338.047 558.609 337.647 558.609 337.156 558.609 336.665 558.21 336.266 557.719 336.266L557.125 336.266C556.961 336.266 556.828 336.133 556.828 335.969 556.828 335.805 556.961 335.672 557.125 335.672L557.719 335.672C557.883 335.672 558.016 335.805 558.016 335.969L558.016 336.266 558.609 336.266 558.609 335.969C558.609 335.478 558.21 335.078 557.719 335.078L557.719 334.484 557.125 334.484 557.125 335.078C556.634 335.078 556.234 335.478 556.234 335.969 556.234 336.46 556.634 336.859 557.125 336.859L557.719 336.859C557.883 336.859 558.016 336.992 558.016 337.156 558.016 337.32 557.883 337.453 557.719 337.453L557.125 337.453C556.961 337.453 556.828 337.32 556.828 337.156L556.828 336.859 556.234 336.859 556.234 337.156C556.234 337.647 556.634 338.047 557.125 338.047Z" stroke="#F3525A" stroke-width="0.296903" fill="#F3525A"/><path d="M559.797 339.828 551.484 339.828 551.484 346.359 559.797 346.359 559.797 348.734 563.359 348.734 563.359 346.359 563.359 346.062 563.359 340.125 563.359 339.828 563.359 338.641 559.797 338.641 559.797 339.828ZM559.797 340.422 559.797 341.016 553.266 341.016 553.266 341.609 559.797 341.609 559.797 342.203 552.078 342.203 552.078 341.609 552.672 341.609 552.672 341.016 552.078 341.016 552.078 340.422 559.797 340.422ZM562.766 343.391 562.172 343.391 562.172 343.984 562.766 343.984 562.766 344.578 560.391 344.578 560.391 343.984 561.578 343.984 561.578 343.391 560.391 343.391 560.391 342.797 562.766 342.797 562.766 343.391ZM562.766 345.172 562.766 345.766 560.391 345.766 560.391 345.172 562.766 345.172ZM559.797 343.984 559.797 344.578 552.078 344.578 552.078 343.984 559.797 343.984ZM552.078 343.391 552.078 342.797 559.797 342.797 559.797 343.391 552.078 343.391ZM562.766 342.203 560.391 342.203 560.391 341.609 562.766 341.609 562.766 342.203ZM562.766 341.016 560.391 341.016 560.391 340.422 562.766 340.422 562.766 341.016ZM552.078 345.766 552.078 345.172 559.797 345.172 559.797 345.766 552.078 345.766ZM562.766 348.141 560.391 348.141 560.391 346.359 562.766 346.359 562.766 348.141ZM562.766 339.234 562.766 339.828 560.391 339.828 560.391 339.234 562.766 339.234Z" stroke="#F3525A" stroke-width="0.296903" fill="#F3525A"/><path d="M568.406 347.825 568.406 334.781C568.406 333.963 567.74 333.297 566.922 333.297 566.103 333.297 565.438 333.963 565.438 334.781L565.438 347.825 565.119 350.374 566.922 351.456 568.725 350.374 568.406 347.825ZM566.031 347.547 566.031 336.859 567.812 336.859 567.812 347.547 566.031 347.547ZM567.812 336.266 566.031 336.266 566.031 335.672 567.812 335.672 567.812 336.266ZM566.922 333.891C567.413 333.891 567.812 334.29 567.812 334.781L567.812 335.078 566.031 335.078 566.031 334.781C566.031 334.29 566.431 333.891 566.922 333.891ZM566.922 350.763 565.756 350.064 565.997 348.141 566.625 348.141 566.625 349.328 567.219 349.328 567.219 348.141 567.847 348.141 568.088 350.064 566.922 350.763Z" stroke="#F3525A" stroke-width="0.296903" fill="#F3525A"/><path d="M559.203 336.266 559.797 336.266 559.797 336.859 559.203 336.859Z" stroke="#F3525A" stroke-width="0.296903" fill="#F3525A"/><path d="M555.047 336.266 555.641 336.266 555.641 336.859 555.047 336.859Z" stroke="#F3525A" stroke-width="0.296903" fill="#F3525A"/></g></svg>