<svg width="34" height="34" xmlns="http://www.w3.org/2000/svg" xmlns:xlink="http://www.w3.org/1999/xlink" xml:space="preserve" overflow="hidden"><defs><clipPath id="clip0"><rect x="449" y="548" width="34" height="34"/></clipPath></defs><g clip-path="url(#clip0)" transform="translate(-449 -548)"><path d="M0 0 34 0 34 34 0 34Z" stroke="#F3525A" stroke-width="1.41669" fill="none" transform="matrix(-1 0 0 1 483 548)"/><path d="M4.25 7.08333 7.08333 7.08333 7.08333 4.25C5.525 4.25 4.25 5.525 4.25 7.08333ZM4.25 18.4167 7.08333 18.4167 7.08333 15.5833 4.25 15.5833 4.25 18.4167ZM9.91667 29.75 12.75 29.75 12.75 26.9167 9.91667 26.9167 9.91667 29.75ZM4.25 12.75 7.08333 12.75 7.08333 9.91667 4.25 9.91667 4.25 12.75ZM18.4167 4.25 15.5833 4.25 15.5833 7.08333 18.4167 7.08333 18.4167 4.25ZM26.9167 4.25 26.9167 7.08333 29.75 7.08333C29.75 5.525 28.475 4.25 26.9167 4.25ZM7.08333 29.75 7.08333 26.9167 4.25 26.9167C4.25 28.475 5.525 29.75 7.08333 29.75ZM4.25 24.0833 7.08333 24.0833 7.08333 21.25 4.25 21.25 4.25 24.0833ZM12.75 4.25 9.91667 4.25 9.91667 7.08333 12.75 7.08333 12.75 4.25ZM15.5833 29.75 18.4167 29.75 18.4167 26.9167 15.5833 26.9167 15.5833 29.75ZM26.9167 18.4167 29.75 18.4167 29.75 15.5833 26.9167 15.5833 26.9167 18.4167ZM26.9167 29.75C28.475 29.75 29.75 28.475 29.75 26.9167L26.9167 26.9167 26.9167 29.75ZM26.9167 12.75 29.75 12.75 29.75 9.91667 26.9167 9.91667 26.9167 12.75ZM26.9167 24.0833 29.75 24.0833 29.75 21.25 26.9167 21.25 26.9167 24.0833ZM21.25 29.75 24.0833 29.75 24.0833 26.9167 21.25 26.9167 21.25 29.75ZM21.25 7.08333 24.0833 7.08333 24.0833 4.25 21.25 4.25 21.25 7.08333ZM9.91667 24.0833 24.0833 24.0833 24.0833 9.91667 9.91667 9.91667 9.91667 24.0833ZM12.75 12.75 21.25 12.75 21.25 21.25 12.75 21.25 12.75 12.75Z" stroke="#F3525A" stroke-width="1.41669" transform="matrix(-1 0 0 1 483 548)"/></g></svg>