<svg width="19" height="19" xmlns="http://www.w3.org/2000/svg" xmlns:xlink="http://www.w3.org/1999/xlink" xml:space="preserve" overflow="hidden"><defs><clipPath id="clip0"><rect x="59" y="435" width="19" height="19"/></clipPath></defs><g clip-path="url(#clip0)" transform="translate(-59 -435)"><path d="M64.9375 440.938 60.1875 440.938 60.1875 436.188 64.9375 436.188ZM61.375 439.75 63.75 439.75 63.75 437.375 61.375 437.375Z" stroke="#F3525A" stroke-width="0.59375" fill="none"/><path d="M76.8125 452.812 72.0625 452.812 72.0625 448.062 76.8125 448.062ZM73.25 451.625 75.625 451.625 75.625 449.25 73.25 449.25Z" stroke="#F3525A" stroke-width="0.59375" fill="none"/><path d="M70.875 451.031 63.75 451.031C61.7825 451.031 60.1875 449.436 60.1875 447.469 60.1875 445.501 61.7825 443.906 63.75 443.906L63.75 445.094C62.4383 445.094 61.375 446.157 61.375 447.469 61.375 448.78 62.4383 449.844 63.75 449.844L70.875 449.844Z" stroke="#F3525A" stroke-width="0.59375" fill="none"/><path d="M73.25 445.094 73.25 443.906C74.5617 443.906 75.625 442.843 75.625 441.531 75.625 440.22 74.5617 439.156 73.25 439.156L66.125 439.156 66.125 437.969 73.25 437.969C75.2175 437.969 76.8125 439.564 76.8125 441.531 76.8125 443.499 75.2175 445.094 73.25 445.094Z" stroke="#F3525A" stroke-width="0.59375" fill="none"/><path d="M70.2812 441.531 66.7188 441.531 64.9375 443.906 68.5 447.469 72.0625 443.906Z" stroke="#F3525A" stroke-width="0.59375" fill="none"/><path d="M59 435 78 435 78 454 59 454Z" stroke="#F3525A" stroke-width="0.59375" fill="none"/></g></svg>