<svg width="25" height="25" xmlns="http://www.w3.org/2000/svg" xmlns:xlink="http://www.w3.org/1999/xlink" xml:space="preserve" overflow="hidden"><defs><clipPath id="clip0"><rect x="77" y="88" width="25" height="25"/></clipPath></defs><g clip-path="url(#clip0)" transform="translate(-77 -88)"><path d="M101.609 97.2875 101.609 94.3371 100.153 93.9641C100.039 93.5949 99.891 93.2383 99.7129 92.9L100.479 91.607 98.3926 89.5207 97.0996 90.2867C96.7617 90.1086 96.4051 89.9609 96.0355 89.8469L95.6625 88.3906 92.7121 88.3906 92.3391 89.8473C91.9699 89.9613 91.6133 90.109 91.275 90.2871L89.982 89.5211 89.5508 89.9531 83.6406 89.9531 83.6406 89.5625C83.6406 88.9164 83.1148 88.3906 82.4688 88.3906L80.9062 88.3906C80.2602 88.3906 79.7344 88.9164 79.7344 89.5625L79.7344 89.9531 77.3906 89.9531 77.3906 112.609 95.3594 112.609 95.3594 103.234 95.6625 103.234 96.0355 101.778C96.4047 101.664 96.7613 101.516 97.0996 101.338L98.3926 102.104 100.479 100.018 99.7129 98.7246C99.891 98.3867 100.039 98.0301 100.153 97.6605L101.609 97.2875ZM82.8594 100.109 82.0781 100.109 82.0781 93.8594 82.8594 93.8594 82.8594 100.109ZM80.5156 93.8594 81.2969 93.8594 81.2969 100.109 80.5156 100.109 80.5156 93.8594ZM82.5203 100.891 81.6875 102.139 80.8547 100.891 82.5203 100.891ZM82.8594 93.0781 80.5156 93.0781 80.5156 92.2969 82.8594 92.2969 82.8594 93.0781ZM81.6875 103.548 82.9383 101.672 83.6406 101.672 83.6406 104.797 79.7344 104.797 79.7344 101.672 80.4367 101.672 81.6875 103.548ZM80.9062 89.1719 82.4688 89.1719C82.6844 89.1719 82.8594 89.3469 82.8594 89.5625L82.8594 91.5156 80.5156 91.5156 80.5156 89.5625C80.5156 89.3469 80.6906 89.1719 80.9062 89.1719ZM94.5781 111.828 78.1719 111.828 78.1719 90.7344 79.7344 90.7344 79.7344 100.618 79.916 100.891 78.9531 100.891 78.9531 105.578 84.4219 105.578 84.4219 100.891 83.459 100.891 83.6406 100.618 83.6406 90.7344 88.7695 90.7344 87.8965 91.6074 88.6625 92.9004C88.4844 93.2383 88.3367 93.5949 88.2227 93.9645L86.7656 94.3375 86.7656 97.2879 88.2223 97.6609C88.3363 98.0301 88.484 98.3867 88.6621 98.725L87.8961 100.018 89.9824 102.104 91.2754 101.338C91.6133 101.516 91.9699 101.664 92.3395 101.778L92.7125 103.234 94.5781 103.234 94.5781 111.828ZM99.5215 97.0156 99.4621 97.2355C99.3387 97.6945 99.1578 98.132 98.9246 98.5367L98.8105 98.7344 99.4977 99.8938 98.2688 101.123 97.1094 100.436 96.9117 100.55C96.507 100.783 96.0695 100.964 95.6105 101.087L95.3906 101.146 95.0563 102.453 93.3191 102.453 92.9848 101.146 92.7648 101.087C92.3059 100.964 91.8684 100.783 91.4637 100.55L91.266 100.436 90.1066 101.123 88.8777 99.8938 89.5648 98.7344 89.4508 98.5367C89.2176 98.132 89.0367 97.6945 88.9133 97.2355L88.8539 97.0156 87.5469 96.6813 87.5469 94.9441 88.8535 94.6098 88.9129 94.3898C89.0363 93.9309 89.2172 93.4934 89.4504 93.0887L89.5645 92.891 88.8773 91.7316 90.1062 90.5027 91.2656 91.1898 91.4633 91.0758C91.868 90.8426 92.3055 90.6617 92.7645 90.5383L92.9844 90.4789 93.3187 89.1719 95.0559 89.1719 95.3902 90.4785 95.6102 90.5379C96.0691 90.6613 96.5066 90.8422 96.9113 91.0754L97.109 91.1895 98.2684 90.5023 99.4973 91.7312 98.8102 92.8906 98.9242 93.0883C99.1574 93.493 99.3383 93.9305 99.4617 94.3895L99.5211 94.6094 100.828 94.9437 100.828 96.6809 99.5215 97.0156Z" fill="#FFFFFF"/><path d="M94.1875 91.125C91.6027 91.125 89.5 93.2277 89.5 95.8125 89.5 98.3973 91.6027 100.5 94.1875 100.5 96.7723 100.5 98.875 98.3973 98.875 95.8125 98.875 93.2277 96.7723 91.125 94.1875 91.125ZM94.1875 99.7188C92.0336 99.7188 90.2812 97.9664 90.2812 95.8125 90.2812 93.6586 92.0336 91.9062 94.1875 91.9062 96.3414 91.9062 98.0938 93.6586 98.0938 95.8125 98.0938 97.9664 96.3414 99.7188 94.1875 99.7188Z" fill="#FFFFFF"/><path d="M94.1875 92.6875C92.4645 92.6875 91.0625 94.0895 91.0625 95.8125 91.0625 97.5355 92.4645 98.9375 94.1875 98.9375 95.9105 98.9375 97.3125 97.5355 97.3125 95.8125 97.3125 94.0895 95.9105 92.6875 94.1875 92.6875ZM94.1875 98.1562C92.8949 98.1562 91.8438 97.1051 91.8438 95.8125 91.8438 94.5199 92.8949 93.4688 94.1875 93.4688 95.4801 93.4688 96.5312 94.5199 96.5312 95.8125 96.5312 97.1051 95.4801 98.1562 94.1875 98.1562Z" fill="#FFFFFF"/><path d="M84.5363 105.693 83.8695 106.359 78.9531 106.359 78.9531 111.047 84.4219 111.047 84.4219 106.912 85.0887 106.245 84.5363 105.693ZM83.6406 110.266 79.7344 110.266 79.7344 107.141 83.0883 107.141 81.2969 108.932 80.7918 108.427 80.2395 108.979 81.2969 110.037 83.6406 107.693 83.6406 110.266Z" fill="#FFFFFF"/><path d="M93.0156 110.266 93.7969 110.266 93.7969 111.047 93.0156 111.047Z" fill="#FFFFFF"/><path d="M85.2031 110.266 92.2344 110.266 92.2344 111.047 85.2031 111.047Z" fill="#FFFFFF"/><path d="M85.2031 108.703 93.7969 108.703 93.7969 109.484 85.2031 109.484Z" fill="#FFFFFF"/><path d="M85.2031 107.141 93.7969 107.141 93.7969 107.922 85.2031 107.922Z" fill="#FFFFFF"/><path d="M85.2031 104.797 92.2344 104.797 92.2344 105.578 85.2031 105.578Z" fill="#FFFFFF"/><path d="M85.2031 103.234 92.2344 103.234 92.2344 104.016 85.2031 104.016Z" fill="#FFFFFF"/><path d="M85.2031 101.672 88.3281 101.672 88.3281 102.453 85.2031 102.453Z" fill="#FFFFFF"/></g></svg>