<svg width="26" height="25" xmlns="http://www.w3.org/2000/svg" xmlns:xlink="http://www.w3.org/1999/xlink" xml:space="preserve" overflow="hidden"><defs><clipPath id="clip0"><rect x="75" y="488" width="26" height="25"/></clipPath></defs><g clip-path="url(#clip0)" transform="translate(-75 -488)"><path d="M6.44531 16.4062C6.44531 16.622 6.27042 16.7969 6.05469 16.7969 5.83895 16.7969 5.66406 16.622 5.66406 16.4062 5.66406 16.1905 5.83895 16.0156 6.05469 16.0156 6.27042 16.0156 6.44531 16.1905 6.44531 16.4062Z" fill="#FFFFFF" fill-rule="evenodd" transform="matrix(1.04 0 0 1 75 488)"/><path d="M19.3359 16.4062C19.3359 16.622 19.161 16.7969 18.9453 16.7969 18.7296 16.7969 18.5547 16.622 18.5547 16.4062 18.5547 16.1905 18.7296 16.0156 18.9453 16.0156 19.161 16.0156 19.3359 16.1905 19.3359 16.4062Z" fill="#FFFFFF" fill-rule="evenodd" transform="matrix(1.04 0 0 1 75 488)"/><path d="M8.98438 12.1094C8.98438 12.3251 8.80949 12.5 8.59375 12.5 8.37801 12.5 8.20312 12.3251 8.20312 12.1094 8.20312 11.8936 8.37801 11.7188 8.59375 11.7188 8.80949 11.7188 8.98438 11.8936 8.98438 12.1094Z" fill="#FFFFFF" fill-rule="evenodd" transform="matrix(1.04 0 0 1 75 488)"/><path d="M16.7969 12.1094C16.7969 12.3251 16.622 12.5 16.4062 12.5 16.1905 12.5 16.0156 12.3251 16.0156 12.1094 16.0156 11.8936 16.1905 11.7188 16.4062 11.7188 16.622 11.7188 16.7969 11.8936 16.7969 12.1094Z" fill="#FFFFFF" fill-rule="evenodd" transform="matrix(1.04 0 0 1 75 488)"/><path d="M12.8906 10.5469C12.8906 10.7626 12.7157 10.9375 12.5 10.9375 12.2843 10.9375 12.1094 10.7626 12.1094 10.5469 12.1094 10.3311 12.2843 10.1562 12.5 10.1562 12.7157 10.1562 12.8906 10.3311 12.8906 10.5469Z" fill="#FFFFFF" fill-rule="evenodd" transform="matrix(1.04 0 0 1 75 488)"/><path d="M8.20312 23.8281 8.20312 18.3551 6.82852 17.2859C6.62227 17.468 6.35117 17.5781 6.05469 17.5781 5.40781 17.5781 4.88281 17.0531 4.88281 16.4062 4.88281 15.7594 5.40781 15.2344 6.05469 15.2344 6.70156 15.2344 7.22656 15.7594 7.22656 16.4062 7.22656 16.4703 7.22148 16.5328 7.21172 16.5941L8.83359 17.8559C8.92891 17.9297 8.98438 18.0434 8.98438 18.1641L8.98438 23.8281 10.1562 23.8281 10.1562 14.2242 9.09883 13.1668C8.94609 13.2402 8.77461 13.2812 8.59375 13.2812 7.94688 13.2812 7.42188 12.7562 7.42188 12.1094 7.42188 11.4625 7.94688 10.9375 8.59375 10.9375 9.24063 10.9375 9.76562 11.4625 9.76562 12.1094 9.76562 12.2902 9.72461 12.4617 9.65117 12.6145L10.823 13.7863C10.8965 13.8594 10.9375 13.959 10.9375 14.0625L10.9375 23.8281 12.1094 23.8281 12.1094 11.652C11.6543 11.491 11.3281 11.0566 11.3281 10.5469 11.3281 9.9 11.8531 9.375 12.5 9.375 13.1469 9.375 13.6719 9.9 13.6719 10.5469 13.6719 11.0566 13.3457 11.491 12.8906 11.652L12.8906 23.8281 14.0625 23.8281 14.0625 14.0625C14.0625 13.959 14.1035 13.8594 14.177 13.7863L15.3488 12.6145C15.2754 12.4617 15.2344 12.2902 15.2344 12.1094 15.2344 11.4625 15.7594 10.9375 16.4062 10.9375 17.0531 10.9375 17.5781 11.4625 17.5781 12.1094 17.5781 12.7562 17.0531 13.2812 16.4062 13.2812 16.2254 13.2812 16.0539 13.2402 15.9012 13.1668L14.8438 14.2242 14.8438 23.8281 16.0156 23.8281 16.0156 18.1641C16.0156 18.0434 16.0711 17.9297 16.1664 17.8559L17.7883 16.5941C17.7785 16.5328 17.7734 16.4703 17.7734 16.4062 17.7734 15.7594 18.2984 15.2344 18.9453 15.2344 19.5922 15.2344 20.1172 15.7594 20.1172 16.4062 20.1172 17.0531 19.5922 17.5781 18.9453 17.5781 18.6488 17.5781 18.3777 17.468 18.1715 17.2859L16.7969 18.3551 16.7969 23.8281 23.4375 23.8281C23.6531 23.8281 23.8281 23.6531 23.8281 23.4375L23.8281 7.8125C23.8281 7.67227 23.7531 7.54297 23.6312 7.47344L20.7031 5.8 20.7031 2.34375C20.7031 2.12812 20.5281 1.95312 20.3125 1.95312L16.7969 1.95312C16.5813 1.95312 16.4062 2.12812 16.4062 2.34375L16.4062 3.34492 12.6937 1.22344C12.5738 1.15469 12.4262 1.15469 12.3062 1.22344L1.36875 7.47344C1.24687 7.54297 1.17188 7.67227 1.17188 7.8125L1.17188 23.4375C1.17188 23.6531 1.34687 23.8281 1.5625 23.8281L8.20312 23.8281ZM17.1875 3.79102 17.7719 4.125C17.959 4.23203 18.0242 4.47109 17.9172 4.6582 17.8102 4.84531 17.5715 4.91055 17.3844 4.80352 17.3844 4.80352 12.5 2.0125 12.5 2.0125 12.5 2.0125 1.95312 8.03906 1.95312 8.03906L1.95312 8.64961 3.41172 8.64961 12.3062 3.56719C12.4262 3.49844 12.5738 3.49844 12.6937 3.56719 12.6937 3.56719 21.5883 8.64961 21.5883 8.64961L23.0469 8.64961 23.0469 8.03906 20.1188 6.36602C19.9668 6.2793 19.8953 6.10547 19.9309 5.94297 19.925 5.91602 19.9219 5.88789 19.9219 5.85938 19.9219 5.85938 19.9219 2.73438 19.9219 2.73438 19.9219 2.73438 17.1875 2.73438 17.1875 2.73438L17.1875 3.79102Z" fill="#FFFFFF" fill-rule="evenodd" transform="matrix(1.04 0 0 1 75 488)"/></g></svg>