<svg width="24" height="30" xmlns="http://www.w3.org/2000/svg" xmlns:xlink="http://www.w3.org/1999/xlink" xml:space="preserve" overflow="hidden"><defs><clipPath id="clip0"><rect x="76" y="86" width="24" height="30"/></clipPath></defs><g clip-path="url(#clip0)" transform="translate(-76 -86)"><path d="M89.8485 111.061 98.3333 111.061 98.3333 113.182 89.8485 113.182Z" stroke="#FFFFFF" stroke-width="1.04167" stroke-miterlimit="8" fill="none" fill-rule="evenodd" transform="matrix(1.00253 0 0 1 -4.20253 -2.78788)"/><path d="M85.6061 111.061 87.7273 111.061 87.7273 113.182 85.6061 113.182Z" stroke="#FFFFFF" stroke-width="1.04167" stroke-miterlimit="8" fill="none" fill-rule="evenodd" transform="matrix(1.00253 0 0 1 -4.20253 -2.78788)"/><path d="M89.8485 105.909 98.3333 105.909 98.3333 108.03 89.8485 108.03Z" stroke="#FFFFFF" stroke-width="1.04167" stroke-miterlimit="8" fill="none" fill-rule="evenodd" transform="matrix(1.00253 0 0 1 -4.20253 -2.78788)"/><path d="M85.6061 105.909 87.7273 105.909 87.7273 108.03 85.6061 108.03Z" stroke="#FFFFFF" stroke-width="1.04167" stroke-miterlimit="8" fill="none" fill-rule="evenodd" transform="matrix(1.00253 0 0 1 -4.20253 -2.78788)"/><path d="M89.8485 100.758 98.3333 100.758 98.3333 102.879 89.8485 102.879Z" stroke="#FFFFFF" stroke-width="1.04167" stroke-miterlimit="8" fill="none" fill-rule="evenodd" transform="matrix(1.00253 0 0 1 -4.20253 -2.78788)"/><path d="M85.6061 100.758 87.7273 100.758 87.7273 102.879 85.6061 102.879Z" stroke="#FFFFFF" stroke-width="1.04167" stroke-miterlimit="8" fill="none" fill-rule="evenodd" transform="matrix(1.00253 0 0 1 -4.20253 -2.78788)"/><path d="M101.391 92.3594 98.2506 92.3594 98.2506 91.3203C98.2506 90.1727 97.3133 89.2424 96.157 89.2424L87.7824 89.2424C86.6261 89.2424 85.6888 90.1727 85.6888 91.3203L85.6888 92.3594 82.5482 92.3594C81.3918 92.3594 80.4545 93.2897 80.4545 94.4373L80.4545 116.255C80.4545 117.403 81.3918 118.333 82.5482 118.333L101.391 118.333C102.548 118.333 103.485 117.403 103.485 116.255L103.485 94.4373C103.485 93.2897 102.548 92.3594 101.391 92.3594ZM87.7824 91.3203 96.157 91.3203 96.157 95.4764 87.7824 95.4764ZM101.391 116.255 82.5482 116.255 82.5482 94.4373 85.6888 94.4373 85.6888 97.5542 98.2506 97.5542 98.2506 94.4373 101.391 94.4373Z" stroke="#FFFFFF" stroke-width="1.04167" stroke-miterlimit="8" fill="none" fill-rule="evenodd" transform="matrix(1.00253 0 0 1 -4.20253 -2.78788)"/></g></svg>