<svg width="30" height="29" xmlns="http://www.w3.org/2000/svg" xmlns:xlink="http://www.w3.org/1999/xlink" xml:space="preserve" overflow="hidden"><defs><clipPath id="clip0"><rect x="74" y="340" width="30" height="29"/></clipPath></defs><g clip-path="url(#clip0)" transform="translate(-74 -340)"><path d="M100.387 383.591 94.4111 383.591C93.3115 383.591 92.4204 382.697 92.4192 381.599L92.4192 375.623C92.4204 374.525 93.3115 373.631 94.4111 373.631L100.387 373.631C101.487 373.631 102.378 374.525 102.379 375.623L102.379 381.599C102.378 382.697 101.487 383.591 100.387 383.591ZM94.4111 375.623 94.4099 375.623 94.4111 381.599 100.387 381.599 100.387 375.623Z" stroke="#FFFFFF" stroke-width="1.00694" stroke-miterlimit="8" fill="none" fill-rule="evenodd" transform="matrix(1.03448 0 0 1 -2.36364 -15.0303)"/><path d="M90.3687 379.49 84.3147 379.49C82.6438 379.487 81.2896 378.139 81.2879 376.476L81.2879 372.46 83.3059 372.46 83.3059 376.476C83.3064 377.032 83.7576 377.48 84.3147 377.48L90.3687 377.48Z" stroke="#FFFFFF" stroke-width="1.00694" stroke-miterlimit="8" fill="none" fill-rule="evenodd" transform="matrix(1.03448 0 0 1 -2.36364 -15.0303)"/><path d="M98.5707 371.581 96.5202 371.581 96.5202 368.505C96.5196 367.94 96.0609 367.48 95.4949 367.48L90.3687 367.48 90.3687 365.429 95.4949 365.429C97.1928 365.432 98.5689 366.806 98.5707 368.505Z" stroke="#FFFFFF" stroke-width="1.00694" stroke-miterlimit="8" fill="none" fill-rule="evenodd" transform="matrix(1.03448 0 0 1 -2.36364 -15.0303)"/><path d="M87.3477 371.581C87.172 371.581 86.9994 371.534 86.8471 371.446L82.3128 368.851 77.7786 371.446C77.2961 371.724 76.6807 371.557 76.4042 371.074 76.2779 370.854 76.2395 370.594 76.2972 370.345L77.3661 365.743 74.5282 362.702C74.1489 362.295 74.1709 361.659 74.5775 361.278 74.7222 361.144 74.9032 361.056 75.0986 361.021L79.3276 360.315 81.4074 356.038C81.6505 355.537 82.2528 355.329 82.7531 355.572 82.9485 355.666 83.1081 355.821 83.2077 356.015L85.4278 360.315 89.5324 361.024C90.0804 361.117 90.4484 361.639 90.354 362.187 90.3206 362.38 90.2316 362.559 90.0977 362.702L87.2595 365.743 88.3281 370.348C88.4538 370.889 88.1164 371.428 87.5747 371.554 87.5003 371.572 87.4242 371.581 87.3477 371.581ZM82.3128 366.545C82.3128 366.545 82.6582 366.727 82.8135 366.818L85.8444 368.552 85.0552 365.154 87.353 362.69 84.0977 362.131 82.3398 358.724 80.6847 362.131 77.2803 362.699 79.5707 365.154 78.781 368.552 81.8125 366.818C81.9675 366.727 82.3128 366.545 82.3128 366.545Z" stroke="#FFFFFF" stroke-width="1.00694" stroke-miterlimit="8" fill="none" fill-rule="evenodd" transform="matrix(1.03448 0 0 1 -2.36364 -15.0303)"/></g></svg>